# vtk DataFile Version 5.1
vtk output
ASCII
DATASET POLYDATA
POINTS 32 float
235.553 195.052 445.208 239.266 195.042 448.674 234.306 199.579 446.558 
233.688 193.944 447.204 226.229 189.511 455.185 229.943 189.501 458.65 
224.983 194.037 456.534 228.094 190.619 453.189 229.32 217.685 451.955 
233.034 217.674 455.42 230.566 213.158 450.605 227.455 216.576 453.95 
219.996 212.143 461.931 223.71 212.133 465.396 221.243 207.617 460.582 
221.861 213.252 459.936 254.122 195.001 462.535 250.408 195.012 459.069 
252.876 199.528 463.884 252.257 193.893 464.53 244.799 189.46 472.511 
241.085 189.47 469.046 243.552 193.987 473.86 246.663 190.568 470.516 
247.89 217.634 469.281 244.176 217.644 465.816 249.136 213.107 467.932 
246.025 216.525 471.276 238.566 212.092 479.257 234.852 212.103 475.792 
239.813 207.566 477.908 240.431 213.201 477.262 
METADATA
INFORMATION 2
NAME L2_NORM_RANGE LOCATION vtkDataArray
DATA 2 540.13 575.834 
NAME L2_NORM_FINITE_RANGE LOCATION vtkDataArray
DATA 2 540.13 575.834 

LINES 25 48
OFFSETS vtktypeint64
0 2 4 6 8 10 12 14 16 
18 20 22 24 26 28 30 32 34 
36 38 40 42 44 46 48 
CONNECTIVITY vtktypeint64
0 1 0 2 0 3 4 5 4 
6 4 7 8 9 8 10 8 11 
12 13 12 14 12 15 16 17 16 
18 16 19 20 21 20 22 20 23 
24 25 24 26 24 27 28 29 28 
30 28 31 
CELL_DATA 24
FIELD FieldData 1
CellCenters 3 24 double
237.40949249 195.04718781 446.94102478 234.92928314 197.31549835 445.88302612 234.62018585 194.49814606 446.20602417 
228.08599091 189.50591278 456.9172821 225.60578156 191.77422333 455.85928345 227.16138458 190.06512451 454.18702698 
231.17694092 217.67943573 453.68728638 229.9432373 215.4213028 451.2800293 228.38762665 217.13040161 452.95227051 
221.85344696 212.13816071 463.66352844 220.61974335 209.88002777 461.25628662 220.92884064 212.69738007 460.93328857 
252.26515198 195.00647736 460.80204773 253.49885559 197.26461029 463.20928955 253.18976593 194.447258 463.53230286 
242.94165802 189.46520233 470.77830505 244.175354 191.72333527 473.18554688 245.73096466 190.01423645 471.51330566 
246.0326004 217.63874054 467.54830933 248.51280975 215.37042236 468.60630798 246.95720673 217.07952118 470.27856445 
236.70909882 212.09745789 477.52455139 239.18930817 209.82914734 478.58255005 239.49840546 212.64649963 478.259552 

POINT_DATA 32
FIELD FieldData 1
PointLocations 3 32 float
235.553 195.052 445.208 239.266 195.042 448.674 234.306 199.579 446.558 
233.688 193.944 447.204 226.229 189.511 455.185 229.943 189.501 458.65 
224.983 194.037 456.534 228.094 190.619 453.189 229.32 217.685 451.955 
233.034 217.674 455.42 230.566 213.158 450.605 227.455 216.576 453.95 
219.996 212.143 461.931 223.71 212.133 465.396 221.243 207.617 460.582 
221.861 213.252 459.936 254.122 195.001 462.535 250.408 195.012 459.069 
252.876 199.528 463.884 252.257 193.893 464.53 244.799 189.46 472.511 
241.085 189.47 469.046 243.552 193.987 473.86 246.663 190.568 470.516 
247.89 217.634 469.281 244.176 217.644 465.816 249.136 213.107 467.932 
246.025 216.525 471.276 238.566 212.092 479.257 234.852 212.103 475.792 
239.813 207.566 477.908 240.431 213.201 477.262 
